<svg width="21" height="21" viewBox="0 0 21 21" fill="none" xmlns="http://www.w3.org/2000/svg">
<g clip-path="url(#clip0_1_6490)">
<path d="M16.4734 3.81158L3.53992 16.7231L4.48191 17.6667L17.4154 4.75517L16.4734 3.81158Z" fill="url(#paint0_linear_1_6490)"/>
<path d="M4.48203 3.81178L3.54004 4.75537L16.4735 17.6669L17.4155 16.7233L4.48203 3.81178Z" fill="url(#paint1_linear_1_6490)"/>
<path d="M12.5619 12.9675C10.725 14.8042 9.84543 17.3373 10.149 19.9168L11.473 19.761C11.2174 17.5895 11.9581 15.4568 13.5045 13.9101C15.1078 12.3068 17.3941 11.5628 19.6163 11.9192L19.8276 10.6028C17.1834 10.1784 14.4668 11.0626 12.5619 12.9675Z" fill="url(#paint2_linear_1_6490)"/>
<path d="M10.1646 1.5686L8.83485 1.66462C8.98239 3.71063 8.22685 5.72438 6.75841 7.19286C5.31442 8.65618 3.35731 9.39087 1.25173 9.2622L1.17017 10.5931C1.35728 10.6047 1.54282 10.6102 1.72771 10.6102C4.01149 10.6102 6.11771 9.74087 7.70438 8.13243C9.44353 6.39325 10.3402 4.00083 10.1646 1.5686Z" fill="url(#paint3_linear_1_6490)"/>
<path d="M10.5 0.75C4.98602 0.75 0.5 5.23602 0.5 10.75C0.5 16.264 4.98602 20.75 10.5 20.75C16.014 20.75 20.5 16.264 20.5 10.75C20.5 5.23602 16.014 0.75 10.5 0.75ZM10.5 19.4167C5.72109 19.4167 1.83332 15.5289 1.83332 10.75C1.83332 5.97109 5.72109 2.08332 10.5 2.08332C15.2789 2.08332 19.1667 5.97109 19.1667 10.75C19.1667 15.5289 15.2789 19.4167 10.5 19.4167Z" fill="url(#paint4_linear_1_6490)"/>
</g>
<defs>
<linearGradient id="paint0_linear_1_6490" x1="-4.3085" y1="23.2499" x2="12.1566" y2="27.2019" gradientUnits="userSpaceOnUse">
<stop stop-color="#F64D4D"/>
<stop offset="1" stop-color="#4D5EF6"/>
</linearGradient>
<linearGradient id="paint1_linear_1_6490" x1="-5.96555" y1="-3.68612" x2="-4.28324" y2="-5.34233" gradientUnits="userSpaceOnUse">
<stop stop-color="#F64D4D"/>
<stop offset="1" stop-color="#4D5EF6"/>
</linearGradient>
<linearGradient id="paint2_linear_1_6490" x1="4.67359" y1="3.95764" x2="21.6593" y2="6.04412" gradientUnits="userSpaceOnUse">
<stop stop-color="#F64D4D"/>
<stop offset="1" stop-color="#4D5EF6"/>
</linearGradient>
<linearGradient id="paint3_linear_1_6490" x1="-3.84506" y1="-4.71029" x2="11.8986" y2="-2.84499" gradientUnits="userSpaceOnUse">
<stop stop-color="#F64D4D"/>
<stop offset="1" stop-color="#4D5EF6"/>
</linearGradient>
<linearGradient id="paint4_linear_1_6490" x1="-10.625" y1="-13.1389" x2="24.2955" y2="-8.98985" gradientUnits="userSpaceOnUse">
<stop stop-color="#F64D4D"/>
<stop offset="1" stop-color="#4D5EF6"/>
</linearGradient>
<clipPath id="clip0_1_6490">
<rect width="20" height="20" fill="white" transform="translate(0.5 0.75)"/>
</clipPath>
</defs>
</svg>
