<svg width="21" height="21" viewBox="0 0 21 21" fill="none" xmlns="http://www.w3.org/2000/svg">
<g clip-path="url(#clip0_1_6458)">
<path d="M18.5643 18.2573L13.9372 8.07777L14.4845 5.34127L17.1351 3.27971C17.4601 3.02694 17.4319 2.52427 17.0766 2.31106C13.6751 0.270129 13.8796 0.361692 13.6803 0.347026C13.5635 0.338634 13.7962 0.30146 10.4999 0.960753C7.0101 0.262796 7.52956 0.365966 7.47564 0.356045C7.34514 0.330203 7.1924 0.349614 7.06018 0.428825L3.92311 2.31106C3.56913 2.52344 3.53831 3.02663 3.86523 3.28022L6.48378 5.31131L7.06143 8.0802L2.43544 18.2573C2.25909 18.6453 2.54218 19.0889 2.97089 19.0889H7.14041L7.09021 19.708C7.06253 20.0503 7.33298 20.3438 7.67649 20.3438H13.3232C13.6665 20.3438 13.9372 20.0505 13.9095 19.708L13.8593 19.0889H18.0288C18.455 19.0889 18.7417 18.6477 18.5643 18.2573ZM13.5895 4.54708C13.4805 4.6319 13.4013 4.75935 13.3739 4.896L12.841 7.5602C12.2584 7.5602 11.6737 7.5602 11.0881 7.5602V4.91059L13.7663 1.69675L15.7353 2.87813L13.5895 4.54708ZM10.4999 2.1488C10.5831 2.1488 10.4902 2.16241 12.1183 1.83678L10.4999 3.77886L8.88148 1.83678C10.5278 2.16605 10.4184 2.1488 10.4999 2.1488ZM7.23346 1.69675L9.91169 4.91059V7.5602C9.32584 7.5602 8.73913 7.5602 8.15466 7.5602C7.54795 4.65198 7.59485 4.78189 7.49838 4.64331C7.42494 4.5381 7.55889 4.65633 5.2655 2.8775L7.23346 1.69675ZM3.88441 17.9125L7.96341 8.93878L7.23581 17.9126H3.88441V17.9125ZM8.31433 19.1674L9.16005 8.73663H11.8396L12.6854 19.1674H8.31433ZM13.7639 17.9125L13.0363 8.93874L17.1153 17.9125H13.7639Z" fill="url(#paint0_linear_1_6458)"/>
</g>
<defs>
<linearGradient id="paint0_linear_1_6458" x1="-6.64878" y1="-13.5452" x2="21.834" y2="-10.798" gradientUnits="userSpaceOnUse">
<stop stop-color="#F64D4D"/>
<stop offset="1" stop-color="#4D5EF6"/>
</linearGradient>
<clipPath id="clip0_1_6458">
<rect width="20" height="20" fill="white" transform="translate(0.5 0.34375)"/>
</clipPath>
</defs>
</svg>
