<svg width="25" height="26" viewBox="0 0 25 26" fill="none" xmlns="http://www.w3.org/2000/svg">
<g clip-path="url(#clip0_1_4464)">
<path d="M24.9761 7.85007C24.9175 6.52172 24.7027 5.6085 24.395 4.81717C24.0775 3.9772 23.5891 3.22518 22.9493 2.60002C22.3241 1.96513 21.5672 1.47179 20.7369 1.15931C19.941 0.851593 19.0326 0.636784 17.7042 0.578217C16.3659 0.514689 15.9411 0.5 12.5469 0.5C9.15266 0.5 8.72781 0.514689 7.3945 0.573257C6.06616 0.631824 5.15293 0.846824 4.3618 1.15435C3.52164 1.47179 2.76961 1.96017 2.14445 2.60002C1.50956 3.22518 1.01642 3.98216 0.703742 4.8124C0.396027 5.6085 0.181217 6.51676 0.12265 7.84511C0.059123 9.18338 0.0444336 9.60823 0.0444336 13.0024C0.0444336 16.3967 0.059123 16.8215 0.11769 18.1548C0.176257 19.4832 0.391257 20.3964 0.698973 21.1877C1.01642 22.0277 1.50956 22.7797 2.14445 23.4049C2.76961 24.0398 3.5266 24.5331 4.35684 24.8456C5.15293 25.1533 6.0612 25.3681 7.38973 25.4267C8.72285 25.4854 9.14789 25.4999 12.5421 25.4999C15.9363 25.4999 16.3612 25.4854 17.6945 25.4267C19.0228 25.3681 19.9361 25.1533 20.7272 24.8456C22.4073 24.196 23.7357 22.8677 24.3852 21.1877C24.6928 20.3916 24.9078 19.4832 24.9663 18.1548C25.0249 16.8215 25.0396 16.3967 25.0396 13.0024C25.0396 9.60823 25.0346 9.18338 24.9761 7.85007ZM22.7248 18.0571C22.671 19.2781 22.4659 19.9374 22.2949 20.3769C21.8749 21.4661 21.0105 22.3304 19.9214 22.7505C19.4818 22.9215 18.8177 23.1265 17.6016 23.1801C16.283 23.2389 15.8875 23.2534 12.5518 23.2534C9.21618 23.2534 8.81575 23.2389 7.50191 23.1801C6.28096 23.1265 5.62166 22.9215 5.18212 22.7505C4.64013 22.5502 4.1468 22.2328 3.74637 21.8176C3.33125 21.4123 3.0138 20.9239 2.81349 20.3819C2.64256 19.9424 2.43748 19.2781 2.38387 18.0621C2.32511 16.7435 2.31062 16.3478 2.31062 13.0122C2.31062 9.67652 2.32511 9.27609 2.38387 7.96243C2.43748 6.74149 2.64256 6.08218 2.81349 5.64264C3.0138 5.10047 3.33125 4.60732 3.75133 4.2067C4.15653 3.79158 4.6449 3.47414 5.18708 3.27402C5.62662 3.10309 6.29088 2.89801 7.50687 2.84421C8.82548 2.78564 9.22114 2.77095 12.5566 2.77095C15.8972 2.77095 16.2927 2.78564 17.6065 2.84421C18.8275 2.89801 19.4868 3.10309 19.9263 3.27402C20.4683 3.47414 20.9616 3.79158 21.3621 4.2067C21.7772 4.61209 22.0946 5.10047 22.2949 5.64264C22.4659 6.08218 22.671 6.74626 22.7248 7.96243C22.7833 9.28105 22.798 9.67652 22.798 13.0122C22.798 16.3478 22.7833 16.7385 22.7248 18.0571Z" fill="white"/>
<path d="M12.5462 6.58032C9.00068 6.58032 6.12402 9.45679 6.12402 13.0025C6.12402 16.5482 9.00068 19.4246 12.5462 19.4246C16.0919 19.4246 18.9683 16.5482 18.9683 13.0025C18.9683 9.45679 16.0919 6.58032 12.5462 6.58032ZM12.5462 17.1684C10.246 17.1684 8.38029 15.3028 8.38029 13.0025C8.38029 10.7021 10.246 8.83659 12.5462 8.83659C14.8465 8.83659 16.7121 10.7021 16.7121 13.0025C16.7121 15.3028 14.8465 17.1684 12.5462 17.1684Z" fill="white"/>
<path d="M20.7219 6.32643C20.7219 7.15438 20.0506 7.82571 19.2224 7.82571C18.3945 7.82571 17.7231 7.15438 17.7231 6.32643C17.7231 5.49828 18.3945 4.82715 19.2224 4.82715C20.0506 4.82715 20.7219 5.49828 20.7219 6.32643Z" fill="white"/>
</g>
<defs>
<clipPath id="clip0_1_4464">
<rect width="25" height="25" fill="white" transform="translate(0 0.5)"/>
</clipPath>
</defs>
</svg>
