<svg width="21" height="21" viewBox="0 0 21 21" fill="none" xmlns="http://www.w3.org/2000/svg">
<g clip-path="url(#clip0_1_6509)">
<path d="M17.1667 15.9168C18.0875 15.9168 18.825 15.171 18.825 14.2501L18.8333 5.08343C18.8333 4.16261 18.0875 3.41675 17.1666 3.41675H3.83332C2.9125 3.41675 2.16664 4.16257 2.16664 5.08343V14.2501C2.16664 15.1709 2.91246 15.9168 3.83332 15.9168H0.5C0.5 16.8376 1.24582 17.5835 2.16668 17.5835H18.8334C19.7542 17.5835 20.5 16.8376 20.5 15.9168H17.1667ZM3.83332 5.08343H17.1666V14.2501H3.83332V5.08343ZM10.5 16.7501C10.0417 16.7501 9.66668 16.3751 9.66668 15.9168C9.66668 15.4585 10.0417 15.0835 10.5 15.0835C10.9583 15.0835 11.3333 15.4585 11.3333 15.9168C11.3333 16.3751 10.9583 16.7501 10.5 16.7501Z" fill="url(#paint0_linear_1_6509)"/>
</g>
<defs>
<linearGradient id="paint0_linear_1_6509" x1="-10.625" y1="-6.42124" x2="23.8194" y2="-0.643631" gradientUnits="userSpaceOnUse">
<stop stop-color="#F64D4D"/>
<stop offset="1" stop-color="#4D5EF6"/>
</linearGradient>
<clipPath id="clip0_1_6509">
<rect width="20" height="20" fill="white" transform="translate(0.5 0.5)"/>
</clipPath>
</defs>
</svg>
