<svg width="120" height="40" viewBox="0 0 120 40" fill="none" xmlns="http://www.w3.org/2000/svg">
<path d="M0 8.13549V26.8273H6.17332V21.9408H8.17764C12.9346 21.9408 16.5691 20.2852 16.5691 15.0515C16.5691 9.79106 12.9346 8.13549 8.17764 8.13549H0ZM10.4492 15.0515C10.4492 16.3332 9.54058 16.8673 8.12419 16.8673H6.17332V13.209H8.12419C9.54058 13.209 10.4492 13.743 10.4492 15.0515Z" fill="black"/>
<path d="M18.4252 8.13549V26.8273H32.5891V21.4334H24.5985V8.13549H18.4252Z" fill="black"/>
<path d="M39.0758 26.8273L39.9042 24.344H46.3715L47.1732 26.8273H53.4267L46.4517 8.13549H39.824L32.8223 26.8273H39.0758ZM42.6301 15.906C42.8172 15.2117 43.0042 14.464 43.1379 13.5027C43.2715 14.464 43.4585 15.2117 43.6723 15.906L44.9818 19.8846H41.3206L42.6301 15.906Z" fill="black"/>
<path d="M53.0135 17.6683C53.0135 24.4775 58.1179 27.2546 63.4093 27.2546C65.3869 27.2546 67.2309 26.8807 68.8878 26.1331V20.4988C67.9257 21.3533 66.1352 21.8339 64.211 21.8339C61.7524 21.8339 59.3472 20.6056 59.3472 17.6683C59.3472 14.3305 61.7791 13.0488 64.3446 13.0488C66.0015 13.0488 67.7119 13.6095 68.7542 14.3305V8.82976C67.0973 8.08209 65.1731 7.70825 63.2489 7.70825C58.1179 7.70825 52.9868 10.5654 53.0135 17.6683Z" fill="black"/>
<path d="M71.1431 8.13549V26.8273H85.4673V21.914H77.3164V19.6977H84.3449V15.1583H77.3164V12.9954H85.3069V8.13549H71.1431Z" fill="black"/>
<path d="M3.71119 33.4813H2.13108V37.7593H1.7416V33.4813H0.16466V33.1488H3.71119V33.4813ZM3.87661 35.9955C3.87661 35.6662 3.93994 35.3696 4.0666 35.1057C4.19537 34.8418 4.37586 34.6371 4.60808 34.4914C4.8424 34.3436 5.10733 34.2697 5.40288 34.2697C5.85886 34.2697 6.22829 34.4302 6.51117 34.7511C6.79404 35.0698 6.93548 35.4931 6.93548 36.0208V36.1C6.93548 36.4314 6.8711 36.7302 6.74232 36.9961C6.61566 37.26 6.43623 37.4637 6.20401 37.6073C5.9718 37.7508 5.70687 37.8226 5.40921 37.8226C4.95534 37.8226 4.58591 37.6632 4.30092 37.3445C4.01804 37.0236 3.87661 36.5993 3.87661 36.0715V35.9955ZM4.25659 36.1C4.25659 36.5095 4.36214 36.8463 4.57324 37.1101C4.78646 37.3719 5.06511 37.5028 5.40921 37.5028C5.7512 37.5028 6.02774 37.3719 6.23884 37.1101C6.45206 36.8463 6.55867 36.499 6.55867 36.0683V35.9955C6.55867 35.7337 6.51011 35.4941 6.413 35.2767C6.3159 35.0593 6.17974 34.8914 6.00452 34.7732C5.82931 34.6529 5.62876 34.5927 5.40288 34.5927C5.06511 34.5927 4.78962 34.7257 4.57641 34.9917C4.3632 35.2556 4.25659 35.6018 4.25659 36.0303V36.1ZM7.79438 37.7593V34.3331H9.05149C9.48636 34.3331 9.81991 34.4112 10.0521 34.5674C10.2843 34.7215 10.4004 34.9484 10.4004 35.2482C10.4004 35.4192 10.3487 35.5723 10.2453 35.7074C10.1418 35.8404 9.9909 35.9375 9.79246 35.9987C10.0162 36.0409 10.1957 36.137 10.3308 36.2868C10.468 36.4367 10.5366 36.6109 10.5366 36.8093C10.5366 37.1112 10.4247 37.3455 10.2009 37.5123C9.97929 37.6769 9.66475 37.7593 9.25732 37.7593H7.79438ZM8.17119 36.1823V37.4426H9.26998C9.55497 37.4426 9.77452 37.3877 9.92862 37.278C10.0827 37.1682 10.1598 37.0099 10.1598 36.803C10.1598 36.613 10.0827 36.4621 9.92862 36.3502C9.77452 36.2383 9.55497 36.1823 9.26998 36.1823H8.17119ZM8.17119 35.8657H9.13066C9.72597 35.8572 10.0236 35.6546 10.0236 35.2577C10.0236 35.0487 9.94129 34.8967 9.77663 34.8017C9.61408 34.7046 9.37237 34.6561 9.05149 34.6561H8.17119V35.8657ZM13.5772 37.7593C13.5392 37.6516 13.515 37.4922 13.5044 37.2811C13.3714 37.4542 13.2015 37.5883 12.9946 37.6833C12.7898 37.7762 12.5724 37.8226 12.3423 37.8226C12.013 37.8226 11.7459 37.7308 11.5412 37.5471C11.3385 37.3635 11.2372 37.1312 11.2372 36.8505C11.2372 36.5169 11.3754 36.2531 11.652 36.0588C11.9306 35.8646 12.318 35.7675 12.8141 35.7675H13.5012V35.378C13.5012 35.1332 13.4252 34.9411 13.2733 34.8017C13.1234 34.6603 12.9038 34.5896 12.6146 34.5896C12.3507 34.5896 12.1322 34.6571 11.9591 34.7922C11.786 34.9273 11.6995 35.0899 11.6995 35.2799L11.3195 35.2767C11.3195 35.0044 11.4462 34.769 11.6995 34.5706C11.9528 34.37 12.2642 34.2697 12.6336 34.2697C13.0157 34.2697 13.3165 34.3658 13.5361 34.5579C13.7577 34.7479 13.8717 35.0139 13.8781 35.3559V36.9771C13.8781 37.3086 13.9129 37.5566 13.9826 37.7213V37.7593H13.5772ZM12.3866 37.487C12.6399 37.487 12.8658 37.4257 13.0643 37.3033C13.2648 37.1809 13.4105 37.0173 13.5012 36.8125V36.0588H12.8236C12.4457 36.0631 12.1502 36.1327 11.937 36.2678C11.7238 36.4008 11.6172 36.5845 11.6172 36.8188C11.6172 37.0109 11.6879 37.1703 11.8293 37.297C11.9729 37.4236 12.1586 37.487 12.3866 37.487ZM17.6787 36.081C17.6787 36.6151 17.5605 37.0394 17.324 37.354C17.0876 37.6664 16.7709 37.8226 16.3741 37.8226C15.9054 37.8226 15.5465 37.6579 15.2974 37.3286V39.0766H14.9206V34.3331H15.2721L15.2911 34.8176C15.5381 34.4524 15.8959 34.2697 16.3646 34.2697C16.7741 34.2697 17.095 34.4249 17.3272 34.7352C17.5615 35.0456 17.6787 35.4762 17.6787 36.0272V36.081ZM17.2987 36.0145C17.2987 35.5775 17.209 35.2324 17.0295 34.9791C16.8501 34.7257 16.5999 34.5991 16.2791 34.5991C16.0468 34.5991 15.8474 34.655 15.6806 34.7669C15.5138 34.8788 15.3861 35.0413 15.2974 35.2545V36.898C15.3882 37.0943 15.518 37.2442 15.6869 37.3476C15.8558 37.4511 16.0553 37.5028 16.2854 37.5028C16.6042 37.5028 16.8522 37.3761 17.0295 37.1228C17.209 36.8674 17.2987 36.4979 17.2987 36.0145ZM18.9714 35.5775H19.9593C20.2127 35.5775 20.4343 35.624 20.6243 35.7169C20.8164 35.8076 20.961 35.9343 21.0581 36.0968C21.1573 36.2594 21.207 36.4483 21.207 36.6637C21.207 36.9951 21.093 37.2611 20.865 37.4616C20.6391 37.6601 20.333 37.7593 19.9467 37.7593H18.5946V34.3331H18.9714V35.5775ZM18.9714 35.9005V37.4395H19.953C20.2253 37.4395 20.4385 37.3708 20.5926 37.2336C20.7489 37.0964 20.827 36.9085 20.827 36.67C20.827 36.442 20.751 36.2583 20.599 36.119C20.4491 35.9776 20.2433 35.9047 19.9815 35.9005H18.9714ZM22.3691 37.7593H21.9891V34.3331H22.3691V37.7593ZM28.0625 34.3331H28.4425V37.7593H28.0625V34.9442L26.2133 37.7593H25.8364V34.3331H26.2133V37.1513L28.0625 34.3331ZM31.4665 35.2387C31.4665 35.0318 31.3895 34.8724 31.2354 34.7606C31.0813 34.6487 30.8691 34.5927 30.5989 34.5927C30.354 34.5927 30.144 34.6561 29.9688 34.7827C29.7957 34.9073 29.7091 35.0656 29.7091 35.2577H29.3323C29.3323 34.9727 29.4537 34.7373 29.6965 34.5516C29.9413 34.3658 30.2422 34.2729 30.5989 34.2729C30.9916 34.2729 31.2977 34.3574 31.5172 34.5262C31.7368 34.6951 31.8465 34.9347 31.8465 35.245C31.8465 35.4097 31.7959 35.5585 31.6945 35.6915C31.5932 35.8245 31.4454 35.928 31.2512 36.0018C31.6903 36.1222 31.9099 36.3945 31.9099 36.8188C31.9099 37.127 31.7906 37.3708 31.552 37.5503C31.3135 37.7297 30.9968 37.8194 30.6021 37.8194C30.22 37.8194 29.9033 37.7234 29.6521 37.5313C29.4009 37.3392 29.2753 37.088 29.2753 36.7776H29.6553C29.6553 36.9845 29.7461 37.1576 29.9276 37.297C30.1113 37.4342 30.3361 37.5028 30.6021 37.5028C30.8913 37.5028 31.1172 37.4426 31.2797 37.3223C31.4444 37.1999 31.5267 37.0341 31.5267 36.8251C31.5267 36.595 31.4518 36.4293 31.3019 36.328C31.152 36.2267 30.923 36.176 30.6147 36.176H30.0923V35.8467H30.6781C31.2037 35.834 31.4665 35.6314 31.4665 35.2387ZM36.2283 35.5965H35.595V37.7593H35.2055V33.1488H35.595V35.264H36.2093L37.992 33.1488H38.4828L36.5892 35.416L38.6222 37.7593H38.1377L36.2283 35.5965ZM38.9776 35.9955C38.9776 35.6662 39.0409 35.3696 39.1676 35.1057C39.2963 34.8418 39.4768 34.6371 39.7091 34.4914C39.9434 34.3436 40.2083 34.2697 40.5039 34.2697C40.9598 34.2697 41.3293 34.4302 41.6121 34.7511C41.895 35.0698 42.0365 35.4931 42.0365 36.0208V36.1C42.0365 36.4314 41.9721 36.7302 41.8433 36.9961C41.7166 37.26 41.5372 37.4637 41.305 37.6073C41.0728 37.7508 40.8078 37.8226 40.5102 37.8226C40.0563 37.8226 39.6869 37.6632 39.4019 37.3445C39.119 37.0236 38.9776 36.5993 38.9776 36.0715V35.9955ZM39.3576 36.1C39.3576 36.5095 39.4631 36.8463 39.6742 37.1101C39.8874 37.3719 40.1661 37.5028 40.5102 37.5028C40.8522 37.5028 41.1287 37.3719 41.3398 37.1101C41.553 36.8463 41.6596 36.499 41.6596 36.0683V35.9955C41.6596 35.7337 41.6111 35.4941 41.514 35.2767C41.4169 35.0593 41.2807 34.8914 41.1055 34.7732C40.9303 34.6529 40.7297 34.5927 40.5039 34.5927C40.1661 34.5927 39.8906 34.7257 39.6774 34.9917C39.4642 35.2556 39.3576 35.6018 39.3576 36.0303V36.1ZM45.6091 36.081C45.6091 36.6151 45.4909 37.0394 45.2544 37.354C45.018 37.6664 44.7013 37.8226 44.3045 37.8226C43.8358 37.8226 43.4769 37.6579 43.2278 37.3286V39.0766H42.851V34.3331H43.2025L43.2215 34.8176C43.4685 34.4524 43.8263 34.2697 44.295 34.2697C44.7045 34.2697 45.0254 34.4249 45.2576 34.7352C45.4919 35.0456 45.6091 35.4762 45.6091 36.0272V36.081ZM45.2291 36.0145C45.2291 35.5775 45.1394 35.2324 44.9599 34.9791C44.7805 34.7257 44.5303 34.5991 44.2095 34.5991C43.9773 34.5991 43.7778 34.655 43.611 34.7669C43.4442 34.8788 43.3165 35.0413 43.2278 35.2545V36.898C43.3186 37.0943 43.4484 37.2442 43.6173 37.3476C43.7862 37.4511 43.9857 37.5028 44.2158 37.5028C44.5346 37.5028 44.7826 37.3761 44.9599 37.1228C45.1394 36.8674 45.2291 36.4979 45.2291 36.0145ZM47.8106 37.8226C47.5193 37.8226 47.2554 37.7508 47.0189 37.6073C46.7846 37.4637 46.602 37.2642 46.4711 37.0088C46.3403 36.7513 46.2748 36.4631 46.2748 36.1443V36.0082C46.2748 35.6789 46.3381 35.3823 46.4648 35.1184C46.5936 34.8545 46.772 34.6476 46.9999 34.4977C47.2279 34.3457 47.4749 34.2697 47.7409 34.2697C48.1568 34.2697 48.4861 34.4122 48.7289 34.6972C48.9738 34.9801 49.0962 35.3675 49.0962 35.8594V36.0715H46.6516V36.1443C46.6516 36.5328 46.7625 36.8568 46.9841 37.1165C47.2079 37.374 47.4887 37.5028 47.8264 37.5028C48.0291 37.5028 48.2075 37.4658 48.3616 37.392C48.5178 37.3181 48.6592 37.1999 48.7859 37.0373L49.0234 37.2178C48.7447 37.621 48.3405 37.8226 47.8106 37.8226ZM47.7409 34.5927C47.4559 34.5927 47.2153 34.6972 47.0189 34.9062C46.8247 35.1152 46.7065 35.396 46.6643 35.7485H48.7194V35.7074C48.7088 35.378 48.6149 35.1099 48.4376 34.9031C48.2602 34.6962 48.028 34.5927 47.7409 34.5927ZM52.1178 34.3331H52.4978V37.7593H52.1178V34.9442L50.2686 37.7593H49.8918V34.3331H50.2686V37.1513L52.1178 34.3331ZM55.6929 35.9955C55.6929 35.6662 55.7562 35.3696 55.8829 35.1057C56.0116 34.8418 56.1921 34.6371 56.4243 34.4914C56.6587 34.3436 56.9236 34.2697 57.2191 34.2697C57.6751 34.2697 58.0445 34.4302 58.3274 34.7511C58.6103 35.0698 58.7517 35.4931 58.7517 36.0208V36.1C58.7517 36.4314 58.6874 36.7302 58.5586 36.9961C58.4319 37.26 58.2525 37.4637 58.0203 37.6073C57.7881 37.7508 57.5231 37.8226 57.2255 37.8226C56.7716 37.8226 56.4022 37.6632 56.1172 37.3445C55.8343 37.0236 55.6929 36.5993 55.6929 36.0715V35.9955ZM56.0728 36.1C56.0728 36.5095 56.1784 36.8463 56.3895 37.1101C56.6027 37.3719 56.8814 37.5028 57.2255 37.5028C57.5675 37.5028 57.844 37.3719 58.0551 37.1101C58.2683 36.8463 58.3749 36.499 58.3749 36.0683V35.9955C58.3749 35.7337 58.3264 35.4941 58.2293 35.2767C58.1322 35.0593 57.996 34.8914 57.8208 34.7732C57.6456 34.6529 57.445 34.5927 57.2191 34.5927C56.8814 34.5927 56.6059 34.7257 56.3927 34.9917C56.1795 35.2556 56.0728 35.6018 56.0728 36.0303V36.1ZM61.9278 34.6561H60.6802V37.7593H60.3002V34.6561H59.1001V34.3331H61.9278V34.6561ZM67.5381 37.7593H67.1581V34.6592H65.3121V37.7593H64.9321V34.3331H67.5381V37.7593ZM71.3419 36.081C71.3419 36.6151 71.2237 37.0394 70.9873 37.354C70.7508 37.6664 70.4342 37.8226 70.0373 37.8226C69.5686 37.8226 69.2098 37.6579 68.9607 37.3286V39.0766H68.5838V34.3331H68.9353L68.9543 34.8176C69.2013 34.4524 69.5591 34.2697 70.0278 34.2697C70.4373 34.2697 70.7582 34.4249 70.9904 34.7352C71.2247 35.0456 71.3419 35.4762 71.3419 36.0272V36.081ZM70.9619 36.0145C70.9619 35.5775 70.8722 35.2324 70.6928 34.9791C70.5133 34.7257 70.2632 34.5991 69.9423 34.5991C69.7101 34.5991 69.5106 34.655 69.3438 34.7669C69.177 34.8788 69.0493 35.0413 68.9607 35.2545V36.898C69.0514 37.0943 69.1813 37.2442 69.3501 37.3476C69.519 37.4511 69.7185 37.5028 69.9486 37.5028C70.2674 37.5028 70.5154 37.3761 70.6928 37.1228C70.8722 36.8674 70.9619 36.4979 70.9619 36.0145ZM72.0076 35.9955C72.0076 35.6662 72.071 35.3696 72.1976 35.1057C72.3264 34.8418 72.5069 34.6371 72.7391 34.4914C72.9734 34.3436 73.2384 34.2697 73.5339 34.2697C73.9899 34.2697 74.3593 34.4302 74.6422 34.7511C74.9251 35.0698 75.0665 35.4931 75.0665 36.0208V36.1C75.0665 36.4314 75.0021 36.7302 74.8734 36.9961C74.7467 37.26 74.5673 37.4637 74.335 37.6073C74.1028 37.7508 73.8379 37.8226 73.5402 37.8226C73.0864 37.8226 72.7169 37.6632 72.432 37.3445C72.1491 37.0236 72.0076 36.5993 72.0076 36.0715V35.9955ZM72.3876 36.1C72.3876 36.5095 72.4932 36.8463 72.7043 37.1101C72.9175 37.3719 73.1961 37.5028 73.5402 37.5028C73.8822 37.5028 74.1588 37.3719 74.3699 37.1101C74.5831 36.8463 74.6897 36.499 74.6897 36.0683V35.9955C74.6897 35.7337 74.6411 35.4941 74.544 35.2767C74.4469 35.0593 74.3108 34.8914 74.1356 34.7732C73.9603 34.6529 73.7598 34.5927 73.5339 34.5927C73.1961 34.5927 72.9207 34.7257 72.7074 34.9917C72.4942 35.2556 72.3876 35.6018 72.3876 36.0303V36.1ZM78.1357 34.3331H78.5156V37.7593H78.1357V34.9442L76.2864 37.7593H75.9096V34.3331H76.2864V37.1513L78.1357 34.3331ZM81.5721 35.2387C81.5721 35.0318 81.4951 34.8724 81.341 34.7606C81.1868 34.6487 80.9747 34.5927 80.7045 34.5927C80.4596 34.5927 80.2495 34.6561 80.0743 34.7827C79.9012 34.9073 79.8147 35.0656 79.8147 35.2577H79.4379C79.4379 34.9727 79.5592 34.7373 79.802 34.5516C80.0469 34.3658 80.3477 34.2729 80.7045 34.2729C81.0971 34.2729 81.4032 34.3574 81.6228 34.5262C81.8423 34.6951 81.9521 34.9347 81.9521 35.245C81.9521 35.4097 81.9014 35.5585 81.8001 35.6915C81.6988 35.8245 81.551 35.928 81.3568 36.0018C81.7959 36.1222 82.0154 36.3945 82.0154 36.8188C82.0154 37.127 81.8962 37.3708 81.6576 37.5503C81.4191 37.7297 81.1024 37.8194 80.7076 37.8194C80.3255 37.8194 80.0089 37.7234 79.7577 37.5313C79.5065 37.3392 79.3809 37.088 79.3809 36.7776H79.7608C79.7608 36.9845 79.8516 37.1576 80.0332 37.297C80.2168 37.4342 80.4417 37.5028 80.7076 37.5028C80.9969 37.5028 81.2227 37.4426 81.3853 37.3223C81.5499 37.1999 81.6323 37.0341 81.6323 36.8251C81.6323 36.595 81.5573 36.4293 81.4074 36.328C81.2576 36.2267 81.0285 36.176 80.7203 36.176H80.1978V35.8467H80.7836C81.3093 35.834 81.5721 35.6314 81.5721 35.2387ZM82.925 37.7593V34.3331H84.1821C84.617 34.3331 84.9505 34.4112 85.1827 34.5674C85.4149 34.7215 85.531 34.9484 85.531 35.2482C85.531 35.4192 85.4793 35.5723 85.3759 35.7074C85.2724 35.8404 85.1215 35.9375 84.9231 35.9987C85.1468 36.0409 85.3263 36.137 85.4614 36.2868C85.5986 36.4367 85.6672 36.6109 85.6672 36.8093C85.6672 37.1112 85.5553 37.3455 85.3316 37.5123C85.1099 37.6769 84.7954 37.7593 84.3879 37.7593H82.925ZM83.3018 36.1823V37.4426H84.4006C84.6856 37.4426 84.9051 37.3877 85.0592 37.278C85.2133 37.1682 85.2904 37.0099 85.2904 36.803C85.2904 36.613 85.2133 36.4621 85.0592 36.3502C84.9051 36.2383 84.6856 36.1823 84.4006 36.1823H83.3018ZM83.3018 35.8657H84.2613C84.8566 35.8572 85.1542 35.6546 85.1542 35.2577C85.1542 35.0487 85.0719 34.8967 84.9072 34.8017C84.7447 34.7046 84.503 34.6561 84.1821 34.6561H83.3018V35.8657ZM86.3361 35.9955C86.3361 35.6662 86.3994 35.3696 86.5261 35.1057C86.6549 34.8418 86.8354 34.6371 87.0676 34.4914C87.3019 34.3436 87.5668 34.2697 87.8624 34.2697C88.3184 34.2697 88.6878 34.4302 88.9707 34.7511C89.2535 35.0698 89.395 35.4931 89.395 36.0208V36.1C89.395 36.4314 89.3306 36.7302 89.2018 36.9961C89.0752 37.26 88.8957 37.4637 88.6635 37.6073C88.4313 37.7508 88.1664 37.8226 87.8687 37.8226C87.4148 37.8226 87.0454 37.6632 86.7604 37.3445C86.4775 37.0236 86.3361 36.5993 86.3361 36.0715V35.9955ZM86.7161 36.1C86.7161 36.5095 86.8216 36.8463 87.0327 37.1101C87.246 37.3719 87.5246 37.5028 87.8687 37.5028C88.2107 37.5028 88.4872 37.3719 88.6983 37.1101C88.9116 36.8463 89.0182 36.499 89.0182 36.0683V35.9955C89.0182 35.7337 88.9696 35.4941 88.8725 35.2767C88.7754 35.0593 88.6392 34.8914 88.464 34.7732C88.2888 34.6529 88.0883 34.5927 87.8624 34.5927C87.5246 34.5927 87.2491 34.7257 87.0359 34.9917C86.8227 35.2556 86.7161 35.6018 86.7161 36.0303V36.1ZM89.9056 37.4395L90.0734 37.221C90.3394 36.86 90.4924 36.3322 90.5325 35.6377L90.5927 34.3331H92.6161V37.4395H92.9708V38.7662H92.594V37.7593H90.0196V38.7662H89.6554L89.6586 37.4395H89.9056ZM90.3425 37.4395H92.2361V34.6877H90.9537L90.9125 35.5775C90.8745 36.3945 90.6845 37.0151 90.3425 37.4395ZM95.9861 34.3331H96.3661V37.7593H95.9861V34.9442L94.1368 37.7593H93.76V34.3331H94.1368V37.1513L95.9861 34.3331ZM99.8753 34.6561H98.6277V37.7593H98.2477V34.6561H97.0476V34.3331H99.8753V34.6561ZM101.605 37.8226C101.314 37.8226 101.05 37.7508 100.813 37.6073C100.579 37.4637 100.396 37.2642 100.266 37.0088C100.135 36.7513 100.069 36.4631 100.069 36.1443V36.0082C100.069 35.6789 100.133 35.3823 100.259 35.1184C100.388 34.8545 100.566 34.6476 100.794 34.4977C101.022 34.3457 101.269 34.2697 101.535 34.2697C101.951 34.2697 102.281 34.4122 102.523 34.6972C102.768 34.9801 102.891 35.3675 102.891 35.8594V36.0715H100.446V36.1443C100.446 36.5328 100.557 36.8568 100.779 37.1165C101.002 37.374 101.283 37.5028 101.621 37.5028C101.824 37.5028 102.002 37.4658 102.156 37.392C102.312 37.3181 102.454 37.1999 102.58 37.0373L102.818 37.2178C102.539 37.621 102.135 37.8226 101.605 37.8226ZM101.535 34.5927C101.25 34.5927 101.01 34.6972 100.813 34.9062C100.619 35.1152 100.501 35.396 100.459 35.7485H102.514V35.7074C102.503 35.378 102.409 35.1099 102.232 34.9031C102.055 34.6962 101.822 34.5927 101.535 34.5927ZM106.295 34.3331V37.7593H105.915V34.6592H104.513L104.453 35.9417C104.427 36.4167 104.38 36.7798 104.31 37.031C104.24 37.2801 104.137 37.4637 104 37.582C103.862 37.7002 103.68 37.7593 103.452 37.7593H103.306V37.4236L103.423 37.4173C103.641 37.4131 103.797 37.3075 103.892 37.1006C103.987 36.8938 104.049 36.5243 104.079 35.9923L104.149 34.3331H106.295ZM109.846 34.3331V37.7593H109.466V36.3787H108.402L107.566 37.7593H107.148L108.009 36.3312C107.775 36.2699 107.592 36.1517 107.461 35.9765C107.333 35.8013 107.268 35.5944 107.268 35.3559C107.268 35.0456 107.379 34.7975 107.601 34.6117C107.825 34.426 108.126 34.3331 108.506 34.3331H109.846ZM107.648 35.3622C107.648 35.5628 107.712 35.7274 107.838 35.8562C107.967 35.985 108.145 36.0515 108.373 36.0557H109.466V34.6561H108.497C108.233 34.6561 108.025 34.7194 107.873 34.8461C107.723 34.9727 107.648 35.1448 107.648 35.3622Z" fill="black"/>
<rect x="100.084" y="8.08813" width="6.24488" height="18.7346" fill="#4656E3"/>
<path d="M118.819 14.3332C111.325 14.3332 106.37 22.6806 106.329 26.823H100.084C100.084 20.5781 106.329 8.08835 118.819 8.08835V14.3332Z" fill="#4D5EF6"/>
<path d="M92.6525 8.08837L88.2231 8.08837C88.223 15.351 92.6526 20.3702 96.504 20.3702C100.084 20.3702 104.399 15.2202 104.399 8.08837L100.084 8.08836C100.084 10.7692 98.0445 15.5558 96.5039 15.5558C94.9634 15.5558 92.6525 10.8231 92.6525 8.08837Z" fill="#F64D4D"/>
<path d="M118.819 20.5779C111.325 20.5779 106.37 12.2306 106.329 8.08813H100.084C100.084 14.333 106.329 26.8228 118.819 26.8228V20.5779Z" fill="#FE5F5F"/>
<rect x="86.4077" y="8.08813" width="6.24487" height="18.7346" fill="#E34646"/>
<rect x="100.084" y="0.219727" width="6.24488" height="6.24488" fill="#FE5F5F"/>
<path d="M39.5555 6.3379H38.2045V2.56932H38.1752L36.682 6.27516H35.8037L34.3146 2.56932H34.2812V6.3379H32.9302V0.30232H34.7036L36.2261 4.17965H36.2596L37.7821 0.30232H39.5555V6.3379Z" fill="black"/>
<path d="M44.0561 5.012H42.0818L41.697 6.3379H40.1327L42.1613 0.30232H44.0393L46.0679 6.3379H44.4367L44.0561 5.012ZM42.3788 3.90777H43.7549L43.0857 1.58221H43.0522L42.3788 3.90777Z" fill="black"/>
<path d="M49.1129 0.30232C50.0275 0.30232 50.7372 0.558857 51.2419 1.07193C51.7494 1.59058 52.0031 2.32812 52.0031 3.28456C52.0031 4.24657 51.7494 4.99666 51.2419 5.53483C50.7344 6.07021 50.0247 6.3379 49.1129 6.3379H46.6493V0.30232H49.1129ZM48.1843 5.09983H48.9079C49.9313 5.09983 50.443 4.49613 50.443 3.28874C50.443 2.72547 50.3091 2.29187 50.0414 1.98793C49.7738 1.68957 49.3959 1.54039 48.9079 1.54039H48.1843V5.09983Z" fill="black"/>
<path d="M56.8926 6.3379H52.756V0.30232H56.8926V1.54039H54.291V2.74081H56.7379V3.87013H54.291V5.09983H56.8926V6.3379Z" fill="black"/>
<path d="M59.4901 6.3379V0.30232H61.0251V6.3379H59.4901Z" fill="black"/>
<path d="M61.9411 6.3379V0.30232H63.1666L65.7264 3.81157H65.7599V0.30232H67.2154V6.3379H66.0025L63.4301 2.79519H63.3967V6.3379H61.9411Z" fill="black"/>
<path d="M69.8631 6.3379V0.30232H71.3981V2.95413H71.4316L73.4853 0.30232H75.1332L73.0293 2.98341L75.2545 6.3379H73.4518L71.9126 3.97888L71.3981 4.63137V6.3379H69.8631Z" fill="black"/>
<path d="M78.2911 0.197754C79.2057 0.197754 79.9307 0.477992 80.4661 1.03847C81.0015 1.59895 81.2692 2.36019 81.2692 3.3222C81.2692 4.28421 81.0015 5.04406 80.4661 5.60175C79.9307 6.16223 79.2057 6.44247 78.2911 6.44247C77.3737 6.44247 76.6473 6.16223 76.112 5.60175C75.5766 5.04406 75.3089 4.28421 75.3089 3.3222C75.3089 2.36019 75.578 1.59895 76.1161 1.03847C76.6515 0.477992 77.3765 0.197754 78.2911 0.197754ZM78.2911 1.44419C77.8617 1.44419 77.5187 1.61289 77.2622 1.95029C77.0029 2.29048 76.8732 2.74778 76.8732 3.3222C76.8732 3.89383 77.0015 4.34974 77.258 4.68993C77.5146 5.02733 77.8589 5.19603 78.2911 5.19603C78.7206 5.19603 79.0635 5.02733 79.3201 4.68993C79.5794 4.34974 79.7091 3.89383 79.7091 3.3222C79.7091 2.74778 79.5794 2.29048 79.3201 1.95029C79.0635 1.61289 78.7206 1.44419 78.2911 1.44419Z" fill="black"/>
<path d="M83.5529 3.17581H84.4606C84.7422 3.17581 84.9625 3.09913 85.1214 2.94576C85.2804 2.7924 85.3598 2.58466 85.3598 2.32255C85.3598 2.06322 85.2776 1.85548 85.1131 1.69933C84.9485 1.54039 84.7296 1.46092 84.4564 1.46092H83.5529V3.17581ZM83.5529 6.3379H82.0179V0.30232H84.6111C85.3584 0.30232 85.9329 0.477992 86.3344 0.829336C86.7303 1.1751 86.9283 1.66308 86.9283 2.29327C86.9283 2.67249 86.8391 3.01268 86.6606 3.31384C86.4766 3.62893 86.2229 3.85758 85.8994 3.99979L87.104 6.3379H85.3807L84.3476 4.22566H83.5529V6.3379Z" fill="black"/>
<path d="M91.8346 6.3379H87.6979V0.30232H91.8346V1.54039H89.233V2.74081H91.6798V3.87013H89.233V5.09983H91.8346V6.3379Z" fill="black"/>
<path d="M96.2891 5.012H94.3149L93.9301 6.3379H92.3658L94.3944 0.30232H96.2724L98.301 6.3379H96.6697L96.2891 5.012ZM94.6119 3.90777H95.988L95.3187 1.58221H95.2853L94.6119 3.90777Z" fill="black"/>
</svg>
