<svg width="21" height="21" viewBox="0 0 21 21" fill="none" xmlns="http://www.w3.org/2000/svg">
<g clip-path="url(#clip0_1_6485)">
<path d="M20.3282 14.9632C20.3282 14.9632 20.3281 14.9631 20.3281 14.963C19.7583 14.3933 19.1138 13.9321 18.4051 13.5843C19.7371 12.1211 20.2578 10.3631 20.2578 10.0823C20.2578 9.80648 20.067 9.57519 19.8103 9.51288C18.8581 9.25952 17.8612 9.18421 16.8824 9.28722C16.9185 9.1046 16.9493 8.92046 16.9738 8.73464C17.1225 7.60538 17.0484 6.47503 16.7537 5.37491C16.6665 5.04937 16.3358 4.88022 16.0359 4.96058C14.9321 5.2562 13.8957 5.7723 12.9935 6.46874C12.3939 4.81163 11.4677 3.74909 10.9145 3.19581C10.8046 3.08593 10.6552 3.02417 10.4998 3.02417C10.3444 3.02417 10.1954 3.08593 10.0855 3.19581C9.53402 3.7473 8.6066 4.80995 8.00648 6.4687C7.1043 5.77226 6.06789 5.25616 4.9641 4.96054C4.65145 4.87687 4.33031 5.06226 4.24652 5.3748C4.0416 6.13929 3.77227 7.53976 4.11754 9.28718C3.13941 9.18425 2.1432 9.25937 1.19156 9.51233C0.93375 9.5739 0.74207 9.80597 0.74207 10.0826C0.74207 10.2956 1.19992 12.0519 2.59484 13.5842C1.88602 13.9321 1.24152 14.3933 0.671758 14.963C0.561758 15.0729 0.5 15.2223 0.5 15.3776C0.5 15.533 0.561758 15.6821 0.671641 15.7919C2.03957 17.1599 3.85832 17.9132 5.79285 17.9132C7.53809 17.9132 9.1891 17.3 10.4999 16.1756C11.8107 17.3 13.4616 17.9132 15.2069 17.9132C17.1358 17.9132 18.9496 17.1642 20.3161 15.8039C20.4293 15.6971 20.5 15.5456 20.5 15.3776C20.5 15.2158 20.4343 15.0692 20.3282 14.9632ZM16.5427 10.5166C17.328 10.3796 18.136 10.3798 18.9214 10.5164C18.3678 12.0373 17.3081 13.3034 15.8896 14.1222C14.9312 14.6756 13.8781 14.985 12.8038 15.0407C14.5237 14.0243 15.4477 12.6915 15.8914 11.923C16.15 11.4751 16.3684 11.0034 16.5427 10.5166ZM2.07844 10.5163C2.86375 10.3798 3.6718 10.3795 4.45703 10.5166C4.63129 11.0034 4.84969 11.4751 5.10824 11.9228C5.55184 12.6912 6.47598 14.0243 8.19586 15.0407C7.12164 14.9849 6.06836 14.6755 5.10996 14.1221C3.69187 13.3035 2.63223 12.0375 2.07844 10.5163ZM5.79281 16.7414C4.37844 16.7414 3.03801 16.261 1.95766 15.3774C2.43074 14.9901 2.95414 14.6806 3.52145 14.4528C3.83809 14.7057 4.17414 14.9351 4.52402 15.137C5.20941 15.5328 6.50309 16.1501 8.27535 16.2142C7.50465 16.5597 6.66277 16.7414 5.79281 16.7414ZM6.12313 11.3369C5.70676 10.6158 4.7932 8.74386 5.24402 6.27483C6.12996 6.59241 6.95215 7.07687 7.65938 7.69933C7.53809 8.28937 7.47676 8.89148 7.47676 9.4939C7.47676 10.4284 7.6216 12.1386 8.67852 13.9633C7.25926 13.0901 6.49422 11.9797 6.12313 11.3369ZM10.4998 14.5156C8.8007 12.5278 8.64863 10.3621 8.64863 9.4939C8.64863 8.6248 8.80098 6.45956 10.4998 4.47214C12.1987 6.4596 12.3511 8.62468 12.3511 9.4939C12.3511 10.3629 12.1987 12.5282 10.4998 14.5156ZM13.5229 9.49386C13.5229 8.89144 13.4616 8.28937 13.3403 7.69929C14.0477 7.07675 14.8699 6.5923 15.7559 6.27472C16.2064 8.74382 15.293 10.6158 14.8766 11.3369C14.5043 11.9817 13.739 13.091 12.3212 13.9632C13.3777 12.1394 13.5229 10.4289 13.5229 9.49386ZM15.2069 16.7414C14.337 16.7414 13.495 16.5597 12.7243 16.2141C14.4995 16.1499 15.7942 15.5305 16.4755 15.1371C16.8255 14.9351 17.1616 14.7057 17.4782 14.4528C18.0455 14.6806 18.5689 14.9901 19.042 15.3773C17.9617 16.261 16.6213 16.7414 15.2069 16.7414Z" fill="url(#paint0_linear_1_6485)"/>
</g>
<defs>
<linearGradient id="paint0_linear_1_6485" x1="-10.625" y1="-7.31546" x2="23.9089" y2="-1.80387" gradientUnits="userSpaceOnUse">
<stop stop-color="#F64D4D"/>
<stop offset="1" stop-color="#4D5EF6"/>
</linearGradient>
<clipPath id="clip0_1_6485">
<rect width="20" height="20" fill="white" transform="translate(0.5 0.46875)"/>
</clipPath>
</defs>
</svg>
