<svg width="17" height="17" viewBox="0 0 17 17" fill="none" xmlns="http://www.w3.org/2000/svg">
<g clip-path="url(#clip0_1_4359)">
<path d="M15.7529 13.7141H1.72697C1.29685 13.7141 0.947754 14.0632 0.947754 14.4933C0.947754 14.9235 1.29685 15.2726 1.72697 15.2726H15.7529C16.1831 15.2726 16.5322 14.9235 16.5322 14.4933C16.5322 14.0632 16.1831 13.7141 15.7529 13.7141ZM1.72697 2.80502H15.7529C16.1831 2.80502 16.5322 2.45595 16.5322 2.0258C16.5322 1.59565 16.1831 1.24658 15.7529 1.24658H1.72697C1.29685 1.24661 0.947754 1.59568 0.947754 2.02583C0.947754 2.45595 1.29685 2.80502 1.72697 2.80502ZM15.7529 7.48035H1.72697C1.29685 7.48035 0.947754 7.82944 0.947754 8.25959C0.947754 8.68974 1.29685 9.03881 1.72697 9.03881H15.7529C16.1831 9.03881 16.5322 8.68972 16.5322 8.25959C16.5322 7.82947 16.1831 7.48035 15.7529 7.48035Z" fill="white"/>
</g>
<defs>
<clipPath id="clip0_1_4359">
<rect width="15.5844" height="15.5844" fill="white" transform="translate(0.947754 0.467529)"/>
</clipPath>
</defs>
</svg>
