<svg width="16" height="17" viewBox="0 0 16 17" fill="none" xmlns="http://www.w3.org/2000/svg">
<g clip-path="url(#clip0_1_2534)">
<path d="M15.921 6.35889L13.3067 2.15849C13.2112 2.00511 13.0433 1.91187 12.8627 1.91187H3.13734C2.95677 1.91187 2.78893 2.00511 2.6934 2.15849L0.0790475 6.35889C-0.0464515 6.56055 -0.0204829 6.8213 0.142485 6.99401L7.61955 14.924C7.71836 15.0288 7.85605 15.0882 8.00002 15.0882C8.14398 15.0882 8.28167 15.0288 8.38048 14.9239L15.8575 6.99401C16.0204 6.82111 16.0465 6.56055 15.921 6.35889ZM8.00005 13.8032L1.1797 6.56961L3.42787 2.95761H12.5724L14.8204 6.56961L8.00005 13.8032Z" fill="url(#paint0_linear_1_2534)"/>
<path d="M15.4771 6.11218H0.522949V7.15793H15.4771V6.11218Z" fill="url(#paint1_linear_1_2534)"/>
<path d="M5.37073 6.58505L6.17701 2.5368L5.1513 2.33252L4.31471 6.53292C4.29502 6.63227 4.30443 6.73511 4.34209 6.82923L7.51419 14.7595L8.48515 14.3711L5.37073 6.58505Z" fill="url(#paint2_linear_1_2534)"/>
<path d="M11.7183 6.491L10.8469 2.4126L9.82431 2.63116L10.6625 6.55322L7.51514 14.3702L8.48507 14.7606L11.6922 6.79566C11.7309 6.69894 11.7401 6.59278 11.7183 6.491Z" fill="url(#paint3_linear_1_2534)"/>
</g>
<defs>
<linearGradient id="paint0_linear_1_2534" x1="-8.9" y1="-7.23839" x2="18.8531" y2="-3.23431" gradientUnits="userSpaceOnUse">
<stop stop-color="#F64D4D"/>
<stop offset="1" stop-color="#4D5EF6"/>
</linearGradient>
<linearGradient id="paint1_linear_1_2534" x1="-7.79529" y1="5.38597" x2="-0.982656" y2="16.9609" gradientUnits="userSpaceOnUse">
<stop stop-color="#F64D4D"/>
<stop offset="1" stop-color="#4D5EF6"/>
</linearGradient>
<linearGradient id="paint2_linear_1_2534" x1="1.97931" y1="-6.2973" x2="9.36974" y2="-6.00191" gradientUnits="userSpaceOnUse">
<stop stop-color="#F64D4D"/>
<stop offset="1" stop-color="#4D5EF6"/>
</linearGradient>
<linearGradient id="paint3_linear_1_2534" x1="5.1707" y1="-6.16238" x2="12.6213" y2="-5.86022" gradientUnits="userSpaceOnUse">
<stop stop-color="#F64D4D"/>
<stop offset="1" stop-color="#4D5EF6"/>
</linearGradient>
<clipPath id="clip0_1_2534">
<rect width="16" height="16" fill="white" transform="translate(0 0.5)"/>
</clipPath>
</defs>
</svg>
