<svg width="17" height="16" viewBox="0 0 17 16" fill="none" xmlns="http://www.w3.org/2000/svg">
<g clip-path="url(#clip0_1_3790)">
<path d="M8.35898 2.13965L10.0782 5.88864L14.0361 6.43151L11.1408 9.29139L11.8676 13.3759L8.35898 11.3944L4.85034 13.3759L5.5772 9.29139L2.68188 6.43151L6.63975 5.88864L8.35898 2.13965Z" fill="url(#paint0_linear_1_3790)"/>
<path d="M15.7666 6.24434C16.042 5.96241 15.883 5.48714 15.4934 5.4277L10.8605 4.72087L8.79691 0.329187C8.62264 -0.0416958 8.09509 -0.0416951 7.92082 0.329188L5.85723 4.72087L1.22426 5.42771C0.834671 5.48715 0.675645 5.96239 0.950999 6.24433L4.31802 9.6919L3.52565 14.5468C3.46058 14.9455 3.88369 15.2437 4.2373 15.0484L8.35886 12.7723L12.4804 15.0484C12.834 15.2437 13.2571 14.9454 13.192 14.5467L12.3992 9.69187L15.7666 6.24434ZM8.35886 11.6027L4.61346 13.7025L5.32835 9.46551L2.10376 6.17385L6.46523 5.60667L8.35886 1.57089L10.2354 5.60669L14.5822 6.22328L11.3894 9.48114L12.0569 13.7181L8.35886 11.6027Z" fill="black"/>
</g>
<defs>
<linearGradient id="paint0_linear_1_3790" x1="-3.63388" y1="-5.6633" x2="16.185" y2="-3.28383" gradientUnits="userSpaceOnUse">
<stop stop-color="#F64D4D"/>
<stop offset="1" stop-color="#4D5EF6"/>
</linearGradient>
<clipPath id="clip0_1_3790">
<rect width="16" height="16" fill="white" transform="translate(0.600098)"/>
</clipPath>
</defs>
</svg>
