<svg width="21" height="21" viewBox="0 0 21 21" fill="none" xmlns="http://www.w3.org/2000/svg">
<g clip-path="url(#clip0_1_6464)">
<path d="M10.5 0.1875C4.97328 0.1875 0.5 4.66004 0.5 10.1875C0.5 15.7142 4.97254 20.1875 10.5 20.1875C16.0267 20.1875 20.5 15.715 20.5 10.1875C20.5 4.66078 16.0275 0.1875 10.5 0.1875ZM10.5 19.0156C5.63215 19.0156 1.67188 15.0554 1.67188 10.1875C1.67188 5.31965 5.63215 1.35938 10.5 1.35938C15.3679 1.35938 19.3281 5.31965 19.3281 10.1875C19.3281 15.0554 15.3679 19.0156 10.5 19.0156Z" fill="url(#paint0_linear_1_6464)"/>
<path d="M17.9596 8.45898C17.1739 5.06699 14.1276 2.53125 10.5001 2.53125C6.85701 2.53125 3.79881 5.09926 3.03834 8.46941C1.941 13.2372 5.56744 17.8438 10.5001 17.8438C15.4887 17.8438 19.1002 13.111 17.9596 8.45898ZM10.5001 3.70312C13.2303 3.70312 15.5716 5.39926 16.5262 7.79305C13.0471 7.08355 7.9999 7.07402 4.47408 7.79305C5.42865 5.39926 7.76998 3.70312 10.5001 3.70312ZM4.47385 12.5814C5.05592 12.6997 5.68904 12.8004 6.36709 12.882C7.05311 12.9646 7.57045 13.5481 7.57045 14.2392V15.9713C6.1692 15.2586 5.05998 14.0516 4.47385 12.5814ZM8.74233 16.4296V14.2392C8.74233 12.9556 7.78143 11.872 6.50725 11.7185C5.61772 11.6114 4.81408 11.471 4.1117 11.3005C3.9835 10.5626 3.98404 9.80906 4.11174 9.07406C7.6619 8.21477 13.3439 8.21609 16.8885 9.07406C17.0163 9.80902 17.0168 10.5626 16.8886 11.3005C16.1862 11.471 15.3826 11.6114 14.493 11.7185C13.2188 11.872 12.258 12.9556 12.258 14.2392V16.4296C11.1236 16.7495 9.89944 16.7559 8.74233 16.4296ZM13.4298 15.9713V14.2392C13.4298 13.5481 13.9472 12.9646 14.6332 12.882C15.3112 12.8004 15.9444 12.6997 16.5264 12.5814C15.9403 14.0516 14.8311 15.2586 13.4298 15.9713Z" fill="url(#paint1_linear_1_6464)"/>
<path d="M12.2578 10.7734C12.2578 9.80418 11.4693 9.01562 10.5 9.01562C9.53074 9.01562 8.74219 9.80418 8.74219 10.7734C8.74219 11.7427 9.53074 12.5312 10.5 12.5312C11.4693 12.5312 12.2578 11.7427 12.2578 10.7734ZM10.5 11.3594C10.1769 11.3594 9.91406 11.0965 9.91406 10.7734C9.91406 10.4504 10.1769 10.1875 10.5 10.1875C10.8231 10.1875 11.0859 10.4504 11.0859 10.7734C11.0859 11.0965 10.8231 11.3594 10.5 11.3594Z" fill="url(#paint2_linear_1_6464)"/>
</g>
<defs>
<linearGradient id="paint0_linear_1_6464" x1="-10.625" y1="-13.7014" x2="24.2955" y2="-9.55235" gradientUnits="userSpaceOnUse">
<stop stop-color="#F64D4D"/>
<stop offset="1" stop-color="#4D5EF6"/>
</linearGradient>
<linearGradient id="paint1_linear_1_6464" x1="-5.68573" y1="-8.10243" x2="21.0795" y2="-4.91877" gradientUnits="userSpaceOnUse">
<stop stop-color="#F64D4D"/>
<stop offset="1" stop-color="#4D5EF6"/>
</linearGradient>
<linearGradient id="paint2_linear_1_6464" x1="6.78662" y1="6.57422" x2="12.925" y2="7.30354" gradientUnits="userSpaceOnUse">
<stop stop-color="#F64D4D"/>
<stop offset="1" stop-color="#4D5EF6"/>
</linearGradient>
<clipPath id="clip0_1_6464">
<rect width="20" height="20" fill="white" transform="translate(0.5 0.1875)"/>
</clipPath>
</defs>
</svg>
