<svg width="21" height="21" viewBox="0 0 21 21" fill="none" xmlns="http://www.w3.org/2000/svg">
<g clip-path="url(#clip0_1_6479)">
<path d="M20.3716 7.86797L17.5769 4.2812C16.8973 3.40907 15.8735 2.90894 14.7679 2.90894H12.9245C12.669 2.90894 12.4407 3.06855 12.353 3.30858C12.0698 4.08308 11.3252 4.60347 10.5001 4.60347C9.67504 4.60347 8.93053 4.08308 8.6473 3.30858C8.55958 3.06855 8.33129 2.90894 8.07578 2.90894H6.23233C5.12677 2.90894 4.10285 3.40907 3.42328 4.28129L0.628668 7.86797C0.50722 8.02384 0.468969 8.22892 0.526172 8.41809C0.583375 8.60726 0.728818 8.75688 0.916336 8.8193L4.78999 10.1098V17.7325C4.78999 18.0686 5.06244 18.341 5.39853 18.341H15.6018C15.9378 18.341 16.2103 18.0686 16.2103 17.7325V10.1098L20.0839 8.8193C20.2715 8.75688 20.4169 8.60726 20.4741 8.41809C20.5313 8.22892 20.4931 8.02384 20.3716 7.86797ZM16.2103 8.82703V7.93247C16.2103 7.59638 15.9378 7.32393 15.6018 7.32393C15.2657 7.32393 14.9932 7.59638 14.9932 7.93247V17.1239H6.00699V7.93247C6.00699 7.59638 5.73454 7.32393 5.39845 7.32393C5.06236 7.32393 4.7899 7.59638 4.7899 7.93247V8.82703L2.11787 7.93682L4.38331 5.02937C4.83067 4.45525 5.50451 4.12603 6.23233 4.12603H7.68249C8.22975 5.15464 9.31348 5.82047 10.5001 5.82047C11.6866 5.82047 12.7704 5.15455 13.3177 4.12603H14.7679C15.4956 4.12603 16.1695 4.45525 16.6169 5.02928L18.8824 7.93682L16.2103 8.82703Z" fill="url(#paint0_linear_1_6479)"/>
</g>
<defs>
<linearGradient id="paint0_linear_1_6479" x1="-10.6249" y1="-7.8078" x2="23.9684" y2="-2.481" gradientUnits="userSpaceOnUse">
<stop stop-color="#F64D4D"/>
<stop offset="1" stop-color="#4D5EF6"/>
</linearGradient>
<clipPath id="clip0_1_6479">
<rect width="20" height="20" fill="white" transform="translate(0.5 0.625)"/>
</clipPath>
</defs>
</svg>
