<svg width="28" height="26" viewBox="0 0 28 26" fill="none" xmlns="http://www.w3.org/2000/svg">
<path d="M26.4932 6.24707C26.673 5.63672 26.4932 5.1875 25.6279 5.1875H22.7647C22.0355 5.1875 21.7001 5.57324 21.5203 6.00293C21.5203 6.00293 20.0619 9.57227 18.0008 11.8867C17.3349 12.5557 17.0286 12.7705 16.664 12.7705C16.4842 12.7705 16.2071 12.5557 16.2071 11.9453V6.24707C16.2071 5.51465 16.0029 5.1875 15.4001 5.1875H10.8987C10.4418 5.1875 10.1696 5.5293 10.1696 5.84668C10.1696 6.54004 11.2001 6.70117 11.3071 8.6543V12.8926C11.3071 13.8203 11.1418 13.9912 10.7772 13.9912C9.80499 13.9912 7.44249 10.4072 6.04249 6.30566C5.76055 5.50977 5.48346 5.1875 4.74944 5.1875H1.88624C1.06957 5.1875 0.904297 5.57324 0.904297 6.00293C0.904297 6.76465 1.87652 10.5488 5.42999 15.5488C7.79735 18.9619 11.1321 20.8125 14.1654 20.8125C15.9883 20.8125 16.2119 20.4023 16.2119 19.6943C16.2119 16.4326 16.0467 16.125 16.9605 16.125C17.3835 16.125 18.1126 16.3398 19.814 17.9854C21.7585 19.9385 22.0793 20.8125 23.1682 20.8125H26.0314C26.8481 20.8125 27.2612 20.4023 27.0231 19.5918C26.4786 17.8877 22.7987 14.3818 22.6335 14.1475C22.2105 13.6006 22.3321 13.3564 22.6335 12.8682C22.6383 12.8633 26.1335 7.92187 26.4932 6.24707Z" fill="white"/>
</svg>
